<svg xmlns="http://www.w3.org/2000/svg" viewBox="0 0 32 32" fill="none">
  <rect width="32" height="32" rx="8" fill="url(#gradient)"/>
  <path d="M8 12C8 10.8954 8.89543 10 10 10H22C23.1046 10 24 10.8954 24 12V12C24 13.1046 23.1046 14 22 14H10C8.89543 14 8 13.1046 8 12V12Z" fill="white" opacity="0.9"/>
  <path d="M10 17C10 16.4477 10.4477 16 11 16H21C21.5523 16 22 16.4477 22 17V17C22 17.5523 21.5523 18 21 18H11C10.4477 18 10 17.5523 10 17V17Z" fill="white" opacity="0.7"/>
  <path d="M12 21C12 20.4477 12.4477 20 13 20H19C19.5523 20 20 20.4477 20 21V21C20 21.5523 19.5523 22 19 22H13C12.4477 22 12 21.5523 12 21V21Z" fill="white" opacity="0.5"/>
  <defs>
    <linearGradient id="gradient" x1="0" y1="0" x2="32" y2="32">
      <stop offset="0%" stop-color="#A855F7"/>
      <stop offset="50%" stop-color="#EC4899"/>
      <stop offset="100%" stop-color="#3B82F6"/>
    </linearGradient>
  </defs>
</svg> 