<svg width="50" height="58" viewBox="0 0 50 58" fill="none" xmlns="http://www.w3.org/2000/svg">
<path fill-rule="evenodd" clip-rule="evenodd" d="M0.720726 44.0123C8.58773 48.5544 16.4577 53.0966 24.2884 57.6387C24.7547 57.89 25.2907 57.89 25.7176 57.6387C33.5513 53.1329 41.3487 48.5908 49.1793 44.0849C49.679 43.8699 50 43.3703 50 42.798V15.5451C50 15.0455 49.7487 14.5791 49.3217 14.3308C41.4547 9.78869 33.6573 5.28288 25.7873 0.740734C25.324 0.419755 24.679 0.419755 24.2127 0.740734C16.4153 5.24654 8.61796 9.75236 0.823634 14.2612C0.32097 14.4762 0 14.9758 0 15.5481V42.801C0 43.2674 0.251365 43.767 0.714664 44.0183L0.720726 44.0123ZM23.6101 53.9535L14.6318 48.8027V38.4315L23.6101 43.6156V53.9505V53.9535ZM35.3743 48.8027L26.4323 53.9535V43.6186L35.3743 38.4345V48.8057V48.8027ZM38.2358 11.1786L47.1748 16.3627V26.7339L38.2358 21.5468V11.1756V11.1786ZM26.4323 4.38354L35.3743 9.53433V19.9056L26.4323 14.7184V4.38051V4.38354ZM25.003 17.1894C32.4067 21.4469 39.8074 25.7014 47.1748 29.9922V41.9743L38.2358 47.1585V35.9636C38.2358 35.4276 37.8785 34.9249 37.4122 34.713L16.0247 22.3371L25.003 17.1863V17.1894ZM14.6318 9.53433L23.6101 4.38354V14.7215L14.6318 19.9086V9.53737V9.53433ZM2.82827 16.3657L11.8035 11.1816V22.3402C11.8035 22.9125 12.1276 23.4121 12.5909 23.6271L33.9783 35.9666L25.003 41.1537C17.5993 36.8962 10.232 32.6417 2.82827 28.3479V16.3657ZM2.82827 31.6031L11.8035 36.7902V47.1615L2.82827 41.9774V31.6061V31.6031Z" fill="url(#gradient)"/>
<defs>
  <linearGradient id="gradient" x1="0" y1="0" x2="50" y2="58">
    <stop offset="0%" stop-color="#A855F7"/>
    <stop offset="50%" stop-color="#EC4899"/>
    <stop offset="100%" stop-color="#3B82F6"/>
  </linearGradient>
</defs>
</svg> 